<svg xmlns="http://www.w3.org/2000/svg" width="18.15" height="18.12" viewBox="0 0 18.15 18.12">
  <g id="Group_275" data-name="Group 275" transform="translate(1024.165 -317)">
    <g id="Group_263" data-name="Group 263" transform="translate(-1247.944 -1955.78)">
      <path id="Path_318" data-name="Path 318" d="M7.288,3.52q.227-.15.464-.284" transform="translate(221.144 2271.59)" fill="none" stroke="#fff" stroke-linecap="round" stroke-width="2"/>
      <path id="Path_319" data-name="Path 319" d="M1.615,9.993A8.019,8.019,0,0,1,2.891,7.148" transform="translate(223.399 2270.035)" fill="none" stroke="#fff" stroke-linecap="round" stroke-width="2"/>
      <path id="Path_320" data-name="Path 320" d="M3.532,21.35A8.039,8.039,0,0,1,1.5,17.328" transform="translate(223.444 2265.989)" fill="none" stroke="#fff" stroke-linecap="round" stroke-width="2"/>
      <path id="Path_321" data-name="Path 321" d="M12.361,27.736a8.03,8.03,0,0,1-3.475-.785" transform="translate(220.508 2262.164)" fill="none" stroke="#fff" stroke-linecap="round" stroke-width="2"/>
      <path id="Path_322" data-name="Path 322" d="M14.653,1.5a8.061,8.061,0,0,1,3.583,15.281" transform="translate(218.216 2272.28)" fill="none" stroke="#fff" stroke-linecap="round" stroke-width="2"/>
    </g>
    <g id="Group_264" data-name="Group 264" transform="translate(-1247.353 -1956.206)">
      <line id="Line_23" data-name="Line 23" x2="6.088" transform="translate(229.353 2282.25)" fill="none" stroke="#fff" stroke-linecap="round" stroke-width="2"/>
      <line id="Line_24" data-name="Line 24" y2="6.088" transform="translate(232.397 2279.206)" fill="none" stroke="#fff" stroke-linecap="round" stroke-width="2"/>
    </g>
  </g>
</svg>
