<svg xmlns="http://www.w3.org/2000/svg" viewBox="0 0 18.15 18.12">
  <g id="Group_274" data-name="Group 274" transform="translate(906.253 -317)">
    <path id="Path_318" data-name="Path 318" d="M7.288,3.52q.227-.15.464-.284" transform="translate(-908.888 315.81)" fill="none" stroke="currentColor" stroke-linecap="round" stroke-width="2"/>
    <path id="Path_319" data-name="Path 319" d="M1.615,9.993A8.019,8.019,0,0,1,2.891,7.148" transform="translate(-906.634 314.255)" fill="none" stroke="currentColor" stroke-linecap="round" stroke-width="2"/>
    <path id="Path_320" data-name="Path 320" d="M3.532,21.35A8.039,8.039,0,0,1,1.5,17.328" transform="translate(-906.588 310.209)" fill="none" stroke="currentColor" stroke-linecap="round" stroke-width="2"/>
    <path id="Path_321" data-name="Path 321" d="M12.361,27.736a8.03,8.03,0,0,1-3.475-.785" transform="translate(-909.524 306.384)" fill="none" stroke="currentColor" stroke-linecap="round" stroke-width="2"/>
    <path id="Path_322" data-name="Path 322" d="M14.653,1.5a8.061,8.061,0,0,1,3.583,15.281" transform="translate(-911.816 316.5)" fill="none" stroke="currentColor" stroke-linecap="round" stroke-width="2"/>
    <line id="Line_23" data-name="Line 23" x2="6.088" transform="translate(-900.088 326.044)" fill="none" stroke="currentColor" stroke-linecap="round" stroke-width="2"/>
    <line id="Line_24" data-name="Line 24" y2="6.088" transform="translate(-897.044 323)" fill="none" stroke="currentColor" stroke-linecap="round" stroke-width="2"/>
  </g>
</svg>
