<svg id="Group_273" data-name="Group 273" xmlns="http://www.w3.org/2000/svg" xmlns:xlink="http://www.w3.org/1999/xlink" viewBox="0 0 117.222 24">
  <defs>
    <clipPath id="clip-path">
      <rect id="Rectangle_2" data-name="Rectangle 2" width="117.222" height="24" fill="currentColor"/>
    </clipPath>
  </defs>
  <g id="Group_4" data-name="Group 4" clip-path="url(#clip-path)">
    <path id="Path_6" data-name="Path 6" d="M254.4,22.463c-.091-.172-.174-.344-.253-.515L246.078,0h-5.822V.378h.006a5.22,5.22,0,0,1,.906.747,2.587,2.587,0,0,1,.461.715l-9.593,21.891h0V24h5.885v-.27h0a7.973,7.973,0,0,1-.419-.742,8.272,8.272,0,0,1-.483-7.641L242.2,3.374l6.3,17.267a1.906,1.906,0,0,1,.114.646v0a2.662,2.662,0,0,1-.1.742,2.094,2.094,0,0,1-.494.86,5.193,5.193,0,0,1-.908.748h-.019V24h8.3v-.36h.01a3.259,3.259,0,0,1-1-1.177" transform="translate(-138.18)" fill="currentColor"/>
    <path id="Path_7" data-name="Path 7" d="M54.531.245V.25h0V4.566h.6l.263-.638C56.23,2,58.77,1.521,60.521,1.463l.066,0c1.67,0,1.948.3,1.95,1V24.146h5.392v-6.73c0-4.432,0-15.024,0-15.024.022-.652.343-.921,1.956-.921h.042c1.724.081,4.157.589,4.968,2.458l.263.638h.6V.245Z" transform="translate(-32.473 -0.146)" fill="currentColor"/>
    <path id="Path_8" data-name="Path 8" d="M140.1,23.715a12.124,12.124,0,0,1-1.508-5.151V.2H133.2V12.076h-7.627V.18h-6.888V.553h0A12.125,12.125,0,0,1,120.193,5.7l0,18.409h5.383V13.921H133.2V24.089h6.9v-.373Z" transform="translate(-70.678 -0.107)" fill="currentColor"/>
    <path id="Path_9" data-name="Path 9" d="M198.55,19.741h-.2l-.263.638c-.878,1.964-3.989,2.408-5.86,2.493h-4.059V13.926h7.717V12.081h-7.717V1.425h5.069c1.661.1,4.227.517,4.973,2.184l.231.562h.5V.186H182.771V11.021c0,1.309,0,2.241,0,2.254V24.11H198.94l.009-4.369Z" transform="translate(-108.842 -0.111)" fill="currentColor"/>
    <path id="Path_10" data-name="Path 10" d="M22.366,22.463c-.091-.172-.174-.344-.253-.515L14.043,0H8.22V.378h.006a5.22,5.22,0,0,1,.906.747,2.587,2.587,0,0,1,.461.715L0,23.731H0V24H5.887v-.27h0a7.854,7.854,0,0,1-.419-.742,8.271,8.271,0,0,1-.483-7.641L10.164,3.374l6.3,17.267a1.906,1.906,0,0,1,.114.646v0a2.662,2.662,0,0,1-.1.742,2.1,2.1,0,0,1-.494.86,5.2,5.2,0,0,1-.908.748h-.019V24h8.3v-.36h.01a3.251,3.251,0,0,1-1-1.177" fill="currentColor"/>
  </g>
</svg>
