<svg xmlns="http://www.w3.org/2000/svg" width="102.458" height="13.247" viewBox="0 0 102.458 13.247">
  <g id="Group_278" data-name="Group 278" transform="translate(1216.762 -607.796)">
    <path id="Path_283" data-name="Path 283" d="M48.917,290.3a28.416,28.416,0,0,0-.173-3.109,1.764,1.764,0,0,0-1.9-1.662c-1.407-.079-2.819-.048-4.229-.063-.233,0-.464,0-.732,0v-.832c.356,0,.693-.005,1.031,0,1.7.035,3.4-.017,5.091.131a3.681,3.681,0,0,1,3.521,3.779c.063,1.571.012,3.146.035,4.719a5.562,5.562,0,0,0,.167,1.285,2.928,2.928,0,0,0,2.666,2.332c.2.026.4.04.614.061a5.1,5.1,0,0,1-4.81-.6.527.527,0,0,0-.7-.072,10.148,10.148,0,0,1-5.934.721,6.986,6.986,0,0,1-1.81-.539A4.083,4.083,0,0,1,39.4,291.81a3.819,3.819,0,0,1,3.641-3.355,12.912,12.912,0,0,1,2.7.037,4.208,4.208,0,0,1,3.01,1.86l.161-.05m-.271,3.094c.062-1.853-1.3-3.962-3.327-4.046a2.846,2.846,0,0,0-3.291,2.838,4.352,4.352,0,0,0,1.227,3.256,3.133,3.133,0,0,0,3.385.758,3.379,3.379,0,0,0,2.006-2.806" transform="translate(-1222.716 323.548)"/>
    <path id="Path_284" data-name="Path 284" d="M8.5,285.4v-.763c.35,0,.671-.006.991,0,1.715.035,3.437-.016,5.142.132a3.72,3.72,0,0,1,3.532,3.885c.03,1.572-.031,3.147.032,4.717a5.5,5.5,0,0,0,.438,1.878,2.7,2.7,0,0,0,2.329,1.626,2.94,2.94,0,0,1,.615.116,5.179,5.179,0,0,1-5.084-.895,9.1,9.1,0,0,1-5.288,1,8.8,8.8,0,0,1-2.919-.707A4.012,4.012,0,0,1,6.023,291.8a3.851,3.851,0,0,1,3.594-3.349,6.74,6.74,0,0,1,3.836.367,16.968,16.968,0,0,1,2.052,1.4c0-.683.032-1.462-.013-2.235a5.1,5.1,0,0,0-.278-1.31,1.556,1.556,0,0,0-1.268-1.06,8.607,8.607,0,0,0-1.4-.137c-1.3-.023-2.6-.016-3.9-.022A.625.625,0,0,1,8.5,285.4m6.806,7.293c.076-2.079-2.435-3.915-4.787-3.15a2.485,2.485,0,0,0-1.789,2.038A4.24,4.24,0,0,0,9.944,295.5a2.963,2.963,0,0,0,4.309,0,3.94,3.94,0,0,0,1.052-2.805" transform="translate(-1222.716 323.548)"/>
    <path id="Path_285" data-name="Path 285" d="M98.894,291.721c0,.876-.06,1.815.015,2.744.105,1.288.95,1.967,2.393,1.995,1.319.026,2.64.009,3.96.01.178,0,.355,0,.573,0v.729c-.016.014-.044.057-.071.057-2.093-.036-4.2.047-6.276-.149a3.6,3.6,0,0,1-3.293-3.749c-.041-1.608.036-3.221-.042-4.827a5.786,5.786,0,0,0-.526-2.016,2.422,2.422,0,0,0-1.886-1.394c-.3-.054-.6-.106-.929-.163a5.028,5.028,0,0,1,5.037.882,9.565,9.565,0,0,1,5.273-1.036,6.483,6.483,0,0,1,3.4.964,4.189,4.189,0,0,1,1.776,4.544,3.745,3.745,0,0,1-3.369,3.131,6.836,6.836,0,0,1-4.146-.385,15.076,15.076,0,0,1-1.889-1.337m.193-2.84a3.616,3.616,0,0,0,4.767,3.5,2.52,2.52,0,0,0,1.78-2.046,4.3,4.3,0,0,0-.439-2.833,3.332,3.332,0,0,0-3.636-1.933,3.446,3.446,0,0,0-2.472,3.309" transform="translate(-1222.716 323.548)"/>
    <path id="Path_286" data-name="Path 286" d="M93.554,297.344a4.415,4.415,0,0,1-1.934.086,3.912,3.912,0,0,1-3.788-4.306c-.013-1.5.029-3-.02-4.5a6.349,6.349,0,0,0-.339-2.009,2.253,2.253,0,0,0-2.208-1.464,4.527,4.527,0,0,0-1.447.114,2.294,2.294,0,0,0-1.745,2.185c-.064,2.382-.072,4.769-.006,7.151a2.415,2.415,0,0,0,2.26,2.371,5.056,5.056,0,0,1,.76.246,2.589,2.589,0,0,1-.811.239,9.278,9.278,0,0,1-2.139-.251c-1.8-.532-2.694-1.833-2.757-3.952-.052-1.734-.008-3.471-.037-5.206A2.7,2.7,0,0,0,77.62,285.3a7.544,7.544,0,0,0-1.055-.209,1.436,1.436,0,0,1-.336-.175c.1-.072.2-.194.314-.208a5.368,5.368,0,0,1,3.748.713c.257.168.417.23.7.016a4.409,4.409,0,0,1,2.606-.795,23.593,23.593,0,0,1,3.19.095,3.793,3.793,0,0,1,3.615,4.046c.038,1.518.012,3.038.016,4.556,0,.289,0,.579.022.868a2.686,2.686,0,0,0,2.646,2.811c.161.022.32.061.481.093,0,.078-.007.157-.011.235" transform="translate(-1222.716 323.548)"/>
    <path id="Path_287" data-name="Path 287" d="M27.192,296.439h6.382a4.217,4.217,0,0,0,3.278-1.2,1.553,1.553,0,0,1-.9,1.425,5.3,5.3,0,0,1-2.038.635c-3.4.064-6.8.028-10.2.027-.066,0-.133-.012-.377-.036l9.636-11.75h-.617q-3.064,0-6.129,0a3.6,3.6,0,0,0-2.8,1.076,1.833,1.833,0,0,1,1.439-1.8,4.487,4.487,0,0,1,1.224-.2c3.507-.015,7.014-.008,10.521-.007a1.72,1.72,0,0,1,.19.017l-9.7,11.678.075.142" transform="translate(-1222.716 323.548)"/>
    <path id="Path_288" data-name="Path 288" d="M54.8,285.1c.226-.138.343-.266.47-.278a5.946,5.946,0,0,1,3.965.764.534.534,0,0,0,.46.041,6.636,6.636,0,0,1,3.372-.866c1.284-.006,2.568,0,3.851-.012.4,0,.462.164.321.557H64.224a3.335,3.335,0,0,0-3.356,3.338c-.012,1.9-.018,3.8.049,5.693a2.51,2.51,0,0,0,2.234,2.419c.213.036.433.042.643.092a.928.928,0,0,1,.269.182c-.092.067-.183.191-.276.192a11.1,11.1,0,0,1-2-.031c-2.47-.421-3.617-1.816-3.631-4.334-.007-1.429.009-2.857.01-4.285,0-2.206-.8-3.1-3.008-3.368a3.275,3.275,0,0,1-.356-.1" transform="translate(-1222.716 323.548)"/>
    <path id="Path_289" data-name="Path 289" d="M72.057,284.248V285.3q0,3.928.009,7.859c0,.361.008.723.043,1.082a2.628,2.628,0,0,0,2.511,2.579,1.209,1.209,0,0,1,.61.209c-.1.068-.185.186-.286.2a5.689,5.689,0,0,1-3.72-.63,3.672,3.672,0,0,1-1.728-3.255c-.048-2.4-.022-4.806-.013-7.209a.6.6,0,0,1,.2-.445c.741-.473,1.5-.914,2.37-1.433" transform="translate(-1222.716 323.548)"/>
  </g>
</svg>
