<svg xmlns="http://www.w3.org/2000/svg" width="18.806" height="26.177" viewBox="0 0 18.806 26.177">
  <g id="Group_279" data-name="Group 279" transform="translate(1047.003 -691.264)">
    <path id="Path_291" data-name="Path 291" d="M175.957,399.378c-.083-3.174-.163-6.218-.244-9.261l.22-.051a3.283,3.283,0,0,1,.251.564,11.954,11.954,0,0,0,4.922,7.262,6.988,6.988,0,0,0,5.647,1.251,2.476,2.476,0,0,0,2.127-2.318c.036-.261.055-.524.093-.785a3.82,3.82,0,0,0-1.585-3.655,19.017,19.017,0,0,0-3.884-2.177,40.944,40.944,0,0,1-3.711-1.924,7.917,7.917,0,0,1-3.9-5.471,7.477,7.477,0,0,1,5.55-8.647,21.087,21.087,0,0,1,2.7-.446,1.568,1.568,0,0,1,.451.068c0,.038,0,.077.007.116a.894.894,0,0,1-.263.112c-1.776.116-3.192,1.505-3.2,3.942a3.8,3.8,0,0,0,1.356,2.948,11.167,11.167,0,0,0,2.946,1.749c1.762.8,3.558,1.546,5.254,2.471a6.987,6.987,0,0,1,3.324,3.757,7.985,7.985,0,0,1-5.4,10.5,11.208,11.208,0,0,1-9.888-1.6c-.289-.195-.5-.237-.771.019-.453.423-.935.815-1.414,1.21a6.019,6.019,0,0,1-.586.362" transform="translate(-1222.716 317.548)"/>
    <path id="Path_292" data-name="Path 292" d="M189.1,380.84a3.439,3.439,0,1,1,3.444-3.421,3.428,3.428,0,0,1-3.444,3.421" transform="translate(-1222.716 317.548)"/>
  </g>
</svg>
