<svg xmlns="http://www.w3.org/2000/svg" width="17.786" height="26.675" viewBox="0 0 17.786 26.675">
  <path id="Path_290" data-name="Path 290" d="M188.938,208.093c-2.477,1.141-4.719,2.092-6.877,3.205a1.829,1.829,0,0,1-2.3-.357c-3.273-2.715-4.388-7.232-2.863-11.7a9.645,9.645,0,0,1,8.941-6.15c2.866-.114,5,.55,6.465,2.088L188.43,197a1.363,1.363,0,0,1-.273-.223c-1.55-2.39-4.148-2.357-5.4.205a10.189,10.189,0,0,0,.4,10.192c.869,1.454,2.151,1.761,3.953,1.13,1.736-.607,1.942-.636,1.691-2.394-.4-2.787.481-4.621,3.3-5.146.606-.113,1.014-.208,1.91-.366,0,.548-.006,8.631-.014,12.549a6.282,6.282,0,0,1-5.29,6.5,10.729,10.729,0,0,1-5.331-.05,6.158,6.158,0,0,1-3.58-2.607c-.453-.707-.72-1.571-.113-2.2a3.275,3.275,0,0,1,1.989-.981,2.425,2.425,0,0,1,2.44,3.4,1.319,1.319,0,0,0,1.682,1.64,3.243,3.243,0,0,0,2.729-2.854c.289-2.474.286-4.983.417-7.7" transform="translate(-176.223 -193.081)"/>
</svg>
