<svg xmlns="http://www.w3.org/2000/svg" width="43.544" height="20.466" viewBox="0 0 43.544 20.466">
  <g id="Group_276" data-name="Group 276" transform="translate(1059.372 -445.413)">
    <path id="Path_293" data-name="Path 293" d="M182.516,125.413a1.7,1.7,0,0,0,.223.028c1.032,0,2.063,0,3.106,0,.787,2.417,1.571,4.83,2.37,7.285.043-.1.07-.15.093-.206q1.878-4.719,3.751-9.438a.3.3,0,0,1,.336-.223q1.315.015,2.631,0a.237.237,0,0,1,.262.183q1.857,4.737,3.724,9.469a.394.394,0,0,0,.106.166l3.743-13.07h-1.7v-2.73h5.73c-.087.312-.167.607-.252.9q-2.763,9.653-5.523,19.305a.278.278,0,0,1-.328.245c-1.025-.011-2.05-.008-3.075,0a.226.226,0,0,1-.25-.173q-1.829-4.686-3.666-9.368c-.028-.072-.059-.142-.1-.247-.11.269-.21.511-.307.754q-1.767,4.421-3.53,8.842a.252.252,0,0,1-.278.193c-1.006-.008-2.012,0-3.017,0-.3,0-.3,0-.386-.284q-.882-2.778-1.765-5.556-.93-2.925-1.859-5.851a1.5,1.5,0,0,1-.034-.223Z" transform="translate(-1222.716 328.548)"/>
    <path id="Path_294" data-name="Path 294" d="M170.31,120.18H165.6v-3.3h8.126v.236q0,6.791,0,13.58a14.185,14.185,0,0,1-.276,3.171,4.406,4.406,0,0,1-3.582,3.368,6.361,6.361,0,0,1-4.779-1.064c-.6-.4-1.154-.862-1.746-1.309l1.825-2.743c.274.193.528.39.8.557.658.4,1.32.8,1.991,1.182a1.505,1.505,0,0,0,.9.183,1.45,1.45,0,0,0,1.329-1.34,14.9,14.9,0,0,0,.119-1.714c.01-3.527.005-7.055.005-10.582Z" transform="translate(-1222.716 328.548)"/>
    <path id="Path_295" data-name="Path 295" d="M182.516,125.412a1.847,1.847,0,0,1-.243.035q-1.635,0-3.269,0h-.254v11.868h-3.4V116.878c.066,0,.134-.009.2-.009q3.646,0,7.293,0a.231.231,0,0,1,.268.192c.218.679.457,1.353.684,2.03.066.194.118.393.182.609h-5.221v2.913h.2c.806,0,1.612.006,2.418-.005a.232.232,0,0,1,.266.2c.266.84.541,1.678.815,2.516a.468.468,0,0,0,.056.093h0" transform="translate(-1222.716 328.548)"/>
  </g>
</svg>
