<svg xmlns="http://www.w3.org/2000/svg" width="303.206" height="207.329" viewBox="0 0 303.206 207.329">
  <g id="Group_297" data-name="Group 297" transform="translate(969.374 -1420.671)">
    <g id="Group_296" data-name="Group 296" transform="translate(-77.718 226)">
      <path id="Path_253" data-name="Path 253" d="M265.1,74.948c-.743,0-1.609.693-2.523,1.85a4.367,4.367,0,0,0-1.21-.12c-5.684,0-11.056,7.223-17.479,16.686-8.644,1.209-12.966,4.206-12.895,5.031a2.651,2.651,0,0,0,1.744,1.537c.18,0,.3-.1.629-.381.967-.82,3.466-2.938,9.178-4.161-5.416,8.044-11,16.129-16.255,16.129a3.922,3.922,0,0,1-2.525-.893,1.578,1.578,0,0,0-.872-.414,2.535,2.535,0,0,0-1.242.693.576.576,0,0,0-.185.444c.074.85,2.087,1.75,3.916,1.75,8.473,0,15.357-9.442,21.146-18.34a48.407,48.407,0,0,1,5.149-.263c1.162,0,2.242.082,3.176.172a24.05,24.05,0,0,0-.8,7.009c.332,3.791,2.913,5.774,5.292,5.774a2.184,2.184,0,0,0,1.468-.429.46.46,0,0,0,.131-.354.622.622,0,0,0-.6-.549.821.821,0,0,0-.249.05.976.976,0,0,1-.307.056c-1.509,0-2.4-1.395-2.637-4.145a26.171,26.171,0,0,1,.734-6.881,18.771,18.771,0,0,1,3.061.986,1.318,1.318,0,0,0,.461.148.684.684,0,0,0,.5-.236.782.782,0,0,0,.21-.584c-.05-.564-2.943-1.418-3.912-1.689,1.834-7.741,5.345-16.748,6.9-17.659a2.319,2.319,0,0,1,.214-.109.554.554,0,0,0,.412-.559.584.584,0,0,0-.633-.549m-9.834,18.2a20.167,20.167,0,0,0-3.356-.307c-1.4,0-2.756.043-4.223.134q.611-.952,1.206-1.888c4.433-6.953,8.262-12.959,11.471-12.959.133,0,.533.006.9.011l.354,0a61.716,61.716,0,0,0-6.354,15" transform="translate(-1060.856 1119.723)" fill="#434343"/>
      <path id="Path_254" data-name="Path 254" d="M577.225,190.347a1.276,1.276,0,0,0-.394-1.818,1.294,1.294,0,0,0-1.861.314c-1.589,2.4-3.506,5.388-5.361,8.281-.886,1.383-1.77,2.763-2.617,4.075a1.9,1.9,0,0,0-2.344-.424c-.784.589-.642,2.047.33,3.49l-.14.225c-.334.545-.714,1.137-1.119,1.756a.827.827,0,0,0-.3-.017,5.6,5.6,0,0,1-3.98-.41c1.466-2.71,1.76-5.045.876-6.939-.764-1.74-2.066-2.037-3.039-1.733-5.17.23-8.924,5.789-10.3,8.172-1.21,2.124-1.774,5.459-.626,7.365a3.291,3.291,0,0,0,3.045,1.547l.186,0c2.491-.183,6.725-3.516,9.116-7.161a7.865,7.865,0,0,0,3.984.746c-1.053,1.593-2.139,3.236-2.918,4.6-1.948,3.648-1.466,5.82-.365,6.635a2.322,2.322,0,0,0,1.413.435c1.427,0,3.273-.994,5.1-2.82a12.214,12.214,0,0,0,3.542-9.406c2.431.628,4.024.716,4.738.263a.89.89,0,0,0,.422-.608l0-.021,0-.021a.76.76,0,0,0-.826-.645,11.352,11.352,0,0,1-4.337-.371l-.039-.005a.5.5,0,0,1-.18-.041,12.425,12.425,0,0,0-.641-2.17l1.447-2.252c2.391-3.722,5.1-7.94,7.179-11.041M563.64,216.941c-1.027.711-1.757.912-2.111.584-.6-.554-.145-2.491.66-3.856.7-1.306,1.8-2.965,2.873-4.57.68-1.021,1.325-1.988,1.849-2.84.165.108.337.2.5.295l.148.082c.263,3.18-1.744,8.452-3.924,10.306m-6.619-11.111c-1.664,3.086-3.994,5.6-5.954,6.406-1.023.393-1.776.348-2.236-.133-.771-.806-.56-2.64.048-4.036,1.735-4.07,4.218-7.536,6.435-9.022-.73,1.7-.34,3.906,1.087,6a3.885,3.885,0,0,0,.62.782m.659-1.364a5.158,5.158,0,0,1-1.249-3.277c.047-1.71.579-2.51,1.06-2.69a.667.667,0,0,1,.233-.042.831.831,0,0,1,.607.309c.8.864.543,3.089-.65,5.7" transform="translate(-1206.25 1068.912)" fill="#434343"/>
      <path id="Path_255" data-name="Path 255" d="M138.34,216.638c-9.273,0-11.623-5.909-11.623-11.526,0-8.064,4.375-12.178,11.852-12.178,4.245,0,5.943.947,5.943.947s-.066.718-.066,2.482c0,1.567.066,2.612.066,2.612-1.4-2.024-2.579-3.2-5.616-3.2-3.951,0-7.118,2.841-7.118,9.175,0,5.257,1.861,8.815,6.987,8.815,3.069,0,4.342-1.241,5.746-3.264,0,0-.066,1.045-.066,2.84,0,1.6.066,2.351.066,2.351a16.667,16.667,0,0,1-6.171.947" transform="translate(-1018.373 1066.821)" fill="#434343"/>
      <path id="Path_256" data-name="Path 256" d="M178.979,216.78c-7.02,0-10.709-4.408-10.709-11.591,0-4.93,1.959-12.375,10.709-12.375,7.02,0,10.709,4.375,10.709,11.591,0,4.93-1.959,12.374-10.709,12.374m0-21.059c-3.363,0-5.583,2.579-5.583,9.142,0,6.53,2.155,9.011,5.583,9.011,3.363,0,5.583-2.579,5.583-9.175,0-6.53-2.155-8.979-5.583-8.979" transform="translate(-1037.005 1066.874)" fill="#434343"/>
      <path id="Path_257" data-name="Path 257" d="M231.606,215.426l-.065,1.143H220.505c-1.764,0-2.514.033-2.514.033l.294-.555c.653-1.241.816-1.47.816-11.265,0-9.5-.131-9.631-.816-10.938l-.294-.555s.98.065,3.559.065c2.546,0,3.493-.065,3.493-.065l-.327.555c-.718,1.241-.882,1.763-.882,9.958v9.925h2.351c4.048,0,4.571-.947,5.779-2.71,0,0-.163,1.273-.359,4.407" transform="translate(-1059.299 1066.661)" fill="#434343"/>
      <path id="Path_258" data-name="Path 258" d="M266.411,215.426l-.065,1.143H255.31c-1.764,0-2.514.033-2.514.033l.294-.555c.653-1.241.816-1.47.816-11.265,0-9.5-.131-9.631-.816-10.938l-.294-.555s.98.065,3.559.065c2.546,0,3.493-.065,3.493-.065l-.327.555c-.718,1.241-.881,1.763-.881,9.958v9.925h2.351c4.048,0,4.571-.947,5.779-2.71,0,0-.163,1.273-.359,4.407" transform="translate(-1074.904 1066.661)" fill="#434343"/>
      <path id="Path_259" data-name="Path 259" d="M302.325,215.426l-.065,1.143H290.115c-1.764,0-2.515.033-2.515.033l.294-.555c.653-1.241.816-1.47.816-11.265,0-9.5-.13-9.631-.816-10.938l-.294-.555s.718.033,2.482.033h11.852s-.033.621-.033,2.057c0,1.567.065,2.285.065,2.351a4.021,4.021,0,0,0-1.142-.882,7.49,7.49,0,0,0-3.592-.719h-3.819v7.379h3.036a7.625,7.625,0,0,0,3.591-.621,4.9,4.9,0,0,0,1.176-.848c0,.033-.1.947-.1,2.905,0,1.861.1,2.808.1,2.873a4.785,4.785,0,0,0-1.176-.882,7.625,7.625,0,0,0-3.591-.621h-3.036v7.412h3.493c4.049,0,4.571-.947,5.779-2.71,0,0-.163,1.273-.359,4.407" transform="translate(-1090.51 1066.661)" fill="#434343"/>
      <path id="Path_260" data-name="Path 260" d="M336.455,216.638c-9.273,0-11.623-5.909-11.623-11.526,0-8.064,4.375-12.178,11.852-12.178,4.245,0,5.943.947,5.943.947s-.066.718-.066,2.482c0,1.567.066,2.612.066,2.612-1.4-2.024-2.579-3.2-5.616-3.2-3.951,0-7.118,2.841-7.118,9.175,0,5.257,1.861,8.815,6.987,8.815,3.069,0,4.342-1.241,5.746-3.264,0,0-.066,1.045-.066,2.84,0,1.6.066,2.351.066,2.351a16.667,16.667,0,0,1-6.171.947" transform="translate(-1107.204 1066.821)" fill="#434343"/>
      <path id="Path_261" data-name="Path 261" d="M382.185,197.789a4.045,4.045,0,0,0-1.143-.882,7.237,7.237,0,0,0-3.559-.816h-1.926v9.044c0,9.5.13,9.631.816,10.938l.293.555s-1.012-.065-3.461-.065-3.493.065-3.493.065l.294-.555c.653-1.241.816-1.47.816-11.264v-8.718h-1.894a7.239,7.239,0,0,0-3.559.816,4.541,4.541,0,0,0-1.176.882,23.077,23.077,0,0,0,.1-2.384c0-1.436-.033-2.057-.033-2.057h17.892s-.033.621-.033,2.057c0,1.567.065,2.318.065,2.384" transform="translate(-1124.854 1066.635)" fill="#434343"/>
      <path id="Path_262" data-name="Path 262" d="M409.005,216.535c-2.449,0-3.493.065-3.493.065l.293-.555c.653-1.241.816-1.469.816-11.264,0-9.5-.131-9.632-.816-10.938l-.293-.555s.979.065,3.461.065c2.547,0,3.493-.065,3.493-.065l-.293.555c-.653,1.241-.817,1.469-.817,11.264,0,9.5.131,9.632.817,10.938l.293.555s-1.044-.065-3.46-.065" transform="translate(-1143.379 1066.661)" fill="#434343"/>
      <path id="Path_263" data-name="Path 263" d="M439.661,216.78c-7.02,0-10.709-4.408-10.709-11.591,0-4.93,1.959-12.375,10.709-12.375,7.02,0,10.709,4.375,10.709,11.591,0,4.93-1.959,12.374-10.709,12.374m0-21.059c-3.363,0-5.583,2.579-5.583,9.142,0,6.53,2.155,9.011,5.583,9.011,3.363,0,5.583-2.579,5.583-9.175,0-6.53-2.155-8.979-5.583-8.979" transform="translate(-1153.889 1066.874)" fill="#434343"/>
      <path id="Path_264" data-name="Path 264" d="M499.02,193.844c-.587,1.143-.816,1.469-.816,11.264v11.526a24.077,24.077,0,0,0-2.546-.1c-1.894,0-3.2.1-3.2.1l-8.391-16.749a13.953,13.953,0,0,1-.882-2.351v7.575c0,9.5.131,9.632.816,10.938l.294.555s-.881-.066-2.841-.066c-2.024,0-2.84.066-2.84.066l.294-.555c.587-1.175.816-1.469.816-11.264,0-9.5-.131-9.631-.816-10.938l-.294-.555s1.045.065,3.624.065c2.188,0,3.265-.065,3.265-.065l8.26,16.619a12.345,12.345,0,0,1,.979,2.514v-7.64c0-9.5-.13-9.631-.816-10.938l-.294-.555s.881.065,2.84.065c2.024,0,2.841-.065,2.841-.065Z" transform="translate(-1176.157 1066.661)" fill="#434343"/>
      <path id="Path_265" data-name="Path 265" d="M299.73,287a17.375,17.375,0,0,1-2.318-.163c0,6.53.163,7.15.882,8.424l.327.587s-1.012-.065-3.526-.065c-2.449,0-3.461.065-3.461.065l.293-.555c.653-1.208.816-1.47.816-11.265,0-9.5-.131-9.631-.816-10.938l-.293-.555s1.045.065,2.743.065c1.4,0,3.657-.1,4.669-.1,3.493,0,9.664.228,9.664,6.987,0,6.465-5.094,7.51-8.979,7.51m-.784-11.885c-.882,0-1.535.033-1.535.033v9.175a8.394,8.394,0,0,0,1.73.1c4.375,0,4.571-3.069,4.571-4.865,0-3.983-2.743-4.441-4.767-4.441" transform="translate(-1092.318 1031.143)" fill="#434343"/>
      <path id="Path_266" data-name="Path 266" d="M344.695,295.863c-2.155,0-3.853.065-3.853.065a2.306,2.306,0,0,0,1.045-2.056,24.581,24.581,0,0,0-1.045-4.9l-.457-1.632h-6.921l-.457,1.632a25.149,25.149,0,0,0-1.078,4.9,2.317,2.317,0,0,0,1.078,2.056s-1.339-.065-3.364-.065c-2.09,0-3.265.065-3.265.065,1.241-1.175,1.829-3.2,3.167-7.738l4.016-13.615a3.772,3.772,0,0,0,.228-1.208.92.92,0,0,0-.228-.686h8.228a1.214,1.214,0,0,0-.2.686,4.907,4.907,0,0,0,.2,1.208l3.722,13.615c1.241,4.571,1.829,6.563,3.037,7.738,0,0-1.5-.065-3.853-.065m-7.15-19.361c-.359-1.371-.555-2.155-.587-2.384-.033.163-.229.881-.621,2.384l-2.122,8h5.452Z" transform="translate(-1107.897 1031.063)" fill="#434343"/>
      <path id="Path_267" data-name="Path 267" d="M379.977,295.913a14.561,14.561,0,0,1-6.008-.98s.066-.783.066-2.35c0-1.73-.066-2.906-.066-2.906,1.241,1.8,2.71,3.3,5.779,3.3,2.09,0,4.277-.424,4.277-2.906,0-1.8-1.077-2.514-2.579-3.4l-2.775-1.665c-2.416-1.4-4.669-3.069-4.669-6.563,0-3.853,2.547-6.236,7.966-6.236a13.955,13.955,0,0,1,5.616.947s-.065.784-.065,2.416c0,1.7.065,2.743.065,2.743-1.339-1.959-2.84-3.2-5.42-3.2-1.8,0-3.755.392-3.755,2.645,0,1.7,1.176,2.351,2.971,3.4l2.318,1.371c2.742,1.6,4.767,3.1,4.767,6.791,0,5.061-3.657,6.6-8.489,6.6" transform="translate(-1129.236 1031.275)" fill="#434343"/>
      <path id="Path_268" data-name="Path 268" d="M416.2,295.913a14.558,14.558,0,0,1-6.008-.98s.066-.783.066-2.35c0-1.73-.066-2.906-.066-2.906,1.241,1.8,2.71,3.3,5.779,3.3,2.09,0,4.277-.424,4.277-2.906,0-1.8-1.077-2.514-2.579-3.4l-2.775-1.665c-2.416-1.4-4.669-3.069-4.669-6.563,0-3.853,2.547-6.236,7.967-6.236a13.955,13.955,0,0,1,5.616.947s-.065.784-.065,2.416c0,1.7.065,2.743.065,2.743-1.339-1.959-2.84-3.2-5.42-3.2-1.8,0-3.755.392-3.755,2.645,0,1.7,1.176,2.351,2.971,3.4l2.318,1.371c2.742,1.6,4.767,3.1,4.767,6.791,0,5.061-3.657,6.6-8.489,6.6" transform="translate(-1145.479 1031.275)" fill="#434343"/>
      <path id="Path_269" data-name="Path 269" d="M450.683,295.81c-2.449,0-3.493.065-3.493.065l.293-.555c.653-1.241.816-1.47.816-11.264,0-9.5-.131-9.632-.816-10.937l-.293-.556s.979.066,3.461.066c2.547,0,3.493-.066,3.493-.066l-.294.556c-.653,1.241-.816,1.469-.816,11.264,0,9.5.13,9.632.816,10.938l.294.555s-1.045-.065-3.461-.065" transform="translate(-1162.067 1031.116)" fill="#434343"/>
      <path id="Path_270" data-name="Path 270" d="M481.339,296.055c-7.02,0-10.709-4.408-10.709-11.591,0-4.93,1.959-12.375,10.709-12.375,7.02,0,10.709,4.375,10.709,11.591,0,4.93-1.959,12.375-10.709,12.375m0-21.059c-3.363,0-5.583,2.579-5.583,9.142,0,6.53,2.155,9.011,5.583,9.011,3.363,0,5.583-2.579,5.583-9.175,0-6.53-2.155-8.979-5.583-8.979" transform="translate(-1172.577 1031.329)" fill="#434343"/>
      <path id="Path_271" data-name="Path 271" d="M540.7,273.119c-.587,1.143-.816,1.469-.816,11.264v11.526a24.07,24.07,0,0,0-2.546-.1c-1.894,0-3.2.1-3.2.1l-8.391-16.749a13.963,13.963,0,0,1-.882-2.351v7.575c0,9.5.131,9.632.816,10.938l.294.555s-.882-.065-2.841-.065c-2.024,0-2.84.065-2.84.065l.294-.555c.587-1.176.816-1.469.816-11.264,0-9.5-.131-9.632-.816-10.937l-.294-.555s1.045.065,3.624.065c2.188,0,3.265-.065,3.265-.065l8.26,16.619a12.347,12.347,0,0,1,.979,2.514v-7.64c0-9.5-.13-9.632-.816-10.937l-.294-.555s.881.065,2.84.065c2.024,0,2.841-.065,2.841-.065Z" transform="translate(-1194.844 1031.116)" fill="#434343"/>
      <path id="Path_272" data-name="Path 272" d="M583.417,295.863c-2.155,0-3.852.065-3.852.065a2.306,2.306,0,0,0,1.045-2.056,24.582,24.582,0,0,0-1.045-4.9l-.457-1.632h-6.922l-.457,1.632a25.178,25.178,0,0,0-1.077,4.9,2.318,2.318,0,0,0,1.077,2.056s-1.339-.065-3.363-.065c-2.09,0-3.265.065-3.265.065,1.241-1.175,1.829-3.2,3.167-7.738l4.016-13.615a3.771,3.771,0,0,0,.228-1.208.922.922,0,0,0-.228-.686h8.228a1.214,1.214,0,0,0-.2.686,4.906,4.906,0,0,0,.2,1.208l3.722,13.615c1.241,4.571,1.829,6.563,3.037,7.738,0,0-1.5-.065-3.853-.065m-7.15-19.361c-.359-1.371-.555-2.155-.587-2.384-.033.163-.229.881-.621,2.384l-2.122,8h5.452Z" transform="translate(-1214.936 1031.063)" fill="#434343"/>
      <path id="Path_273" data-name="Path 273" d="M625.71,277.064a4.043,4.043,0,0,0-1.143-.882,7.237,7.237,0,0,0-3.558-.816h-1.926v9.044c0,9.5.13,9.632.816,10.938l.294.555s-1.012-.065-3.461-.065-3.493.065-3.493.065l.294-.555c.653-1.241.816-1.47.816-11.264v-8.718h-1.894a7.24,7.24,0,0,0-3.559.816,4.54,4.54,0,0,0-1.175.882,23.213,23.213,0,0,0,.1-2.384c0-1.436-.032-2.057-.032-2.057h17.892s-.033.621-.033,2.057c0,1.567.065,2.318.065,2.384" transform="translate(-1234.045 1031.09)" fill="#434343"/>
      <path id="Path_274" data-name="Path 274" d="M663.761,294.7l-.065,1.143H651.55c-1.763,0-2.514.033-2.514.033l.293-.555c.653-1.241.816-1.47.816-11.265,0-9.5-.131-9.631-.816-10.937l-.293-.555s.718.033,2.481.033h11.852s-.033.621-.033,2.057c0,1.567.066,2.285.066,2.351a4.029,4.029,0,0,0-1.143-.882,7.49,7.49,0,0,0-3.592-.719h-3.82v7.379h3.037a7.626,7.626,0,0,0,3.592-.621,4.847,4.847,0,0,0,1.176-.849c0,.033-.1.947-.1,2.906,0,1.861.1,2.808.1,2.873a4.784,4.784,0,0,0-1.176-.881,7.626,7.626,0,0,0-3.592-.621h-3.037V293h3.494c4.048,0,4.571-.947,5.779-2.71,0,0-.163,1.273-.359,4.407" transform="translate(-1252.57 1031.116)" fill="#434343"/>
      <path id="Path_275" data-name="Path 275" d="M337.966,340.648a24.447,24.447,0,0,1,3.2,1.873c4.2,2.925,4.981,8.82,3.107,13.344-3.609,8.362-15.589,14.355-25.273,11.615-1.919,2.879-6.209,9.241-9.052,11.589-4.341,3.7-9.734,5.474-14.428,4.587-2.537-.479-5.943-1.3-7.039-4.039-.594-2.285,2.148-2.7,3.336-1.188,2.921,4.575,7.993,4.4,12.7,1.754,3.839-2.056,8.521-9.518,11.285-13.709l.137-.182c-2.011-.914-4.935-2.377-4.387-3.611a.717.717,0,0,1,1.1-.09,13.678,13.678,0,0,0,4.067,2.467c3.975-6.626,10.788-20.07,17.459-24.593-12.612-3.793-35.629,4.507-28.728,15.931,1.188,1.965,6.809-.228,5.666,2.376-1.919,1.782-5.118.274-6.671-1.324-4.159-4.022-2.8-8.986.717-12.825,7.631-7.677,20.426-9,30.479-5.027a11.066,11.066,0,0,1,3.884-1.234.745.745,0,0,1,.137,1.462,11.59,11.59,0,0,0-1.691.823m-1.234.868c-5.118,4.2-11.884,16.642-16.774,24.456,9.591,1.579,20.475-5.629,21.617-14.083.594-5.164-1.417-8.5-4.844-10.373" transform="translate(-1090.867 1002.039)" fill="#434343"/>
      <path id="Path_276" data-name="Path 276" d="M392.143,373.551a5.064,5.064,0,0,1-.777-5.895c2.513-3.2,4.89,1.462,3.381,3.838-.274.594-.594,1.234-.914,1.782a.735.735,0,0,0,.32.183c.686.731,2.239.594,3.245.823a1.493,1.493,0,0,1,1.508,2.1c-2.056,4.067-5.073,7.905-7.312,11.836-.868,1.553-.092,2.97,1.782,2.376,3.7-1.142,6.534-4.661,8.911-7.677,4.3-1.325-3.747,6.626-4.707,7.083-4.113,3.976-11.287,1.92-8-4.341,1.874-3.427,4.067-6.763,6.26-9.962a6.339,6.339,0,0,1-2.7-1.234c-2.011,3.336-4.57,6.306-6.672,9.505-.5.777-1.782-.046-1.234-.823.457-.913,4.615-5.62,6.9-9.6" transform="translate(-1134.231 988.965)" fill="#434343"/>
      <path id="Path_277" data-name="Path 277" d="M428.451,375.889c1.28-.412,2.7.137,3.519,2.01,1.28,2.742.32,5.8-1.142,8.454a7.009,7.009,0,0,0,5.118.594.72.72,0,0,1,.823.594.71.71,0,0,1-.595.868,9.623,9.623,0,0,1-6.077-.822c-2.742,4.25-7.951,8.545-11.059,8.773-5.8.183-5.072-6.992-3.016-10.6,2.559-4.432,6.991-9.642,12.429-9.87m-2.011,1.691c-2.742,1.553-6.031,5.8-8.408,11.378-1.234,2.833-1.051,6.809,2.879,5.3,2.651-1.1,5.529-4.478,7.4-8a4.4,4.4,0,0,1-.823-1.005c-2.147-3.153-2.056-5.94-1.051-7.677m2.514,7.357c1.462-3.107,2.011-6.124.868-7.357-.96-1.051-2.513-.228-2.6,3.061a6.407,6.407,0,0,0,1.737,4.3" transform="translate(-1147.417 984.845)" fill="#434343"/>
      <path id="Path_278" data-name="Path 278" d="M432.043,390.292a46.572,46.572,0,0,0,7.449-4.25,18.348,18.348,0,0,0,4.2-4.2.736.736,0,0,1,1.051-.183c-.365,3.884-6.763,7.311-13.846,10.556a71.288,71.288,0,0,1-13.023,16.77C406.59,417.892,400.467,403,423,394.267l4.021-1.782c2.056-3.519,4.112-7.174,6.031-10.647,2.056-3.656,3.976-7.265,6.261-10.83a1.472,1.472,0,0,1,2.467,1.6c-3.381,5.712-6.4,11.836-9.733,17.684m-6.169,4.159c-5.438,2.422-10.465,4.8-12.75,7.265-7.129,8.18-.274,13.115,7.22,1.6,1.828-2.742,3.656-5.758,5.529-8.865M441,366.118a1.828,1.828,0,0,1,1.782-2.467,3.462,3.462,0,0,1,3.153,2.467c.777,3.656-4.432,2.742-4.935,0" transform="translate(-1144.384 990.274)" fill="#434343"/>
      <path id="Path_279" data-name="Path 279" d="M475.477,388.121a11.509,11.509,0,0,0-.823,2.148c-1.188,4.524,2.376,5.62,6.032,4.021,3.7-1.371,6.672-4.2,9.185-7.265a.734.734,0,0,1,1.051-.092.762.762,0,0,1,.092,1.005c-2.65,3.2-5.849,6.26-9.825,7.723-5.164,2.011-10.922.731-9.6-5.986,1.782-9.093,11.1-14.3,15.582-13.572,3.885.548,5.484,6.26-4.2,10.144a41.93,41.93,0,0,1-7.494,1.873m.594-1.233a31.291,31.291,0,0,0,6.26-2.011c4.89-2.194,6.078-6.443,4.524-7.357-4.478.228-8.545,4.935-10.784,9.368" transform="translate(-1172.922 984.721)" fill="#434343"/>
      <path id="Path_280" data-name="Path 280" d="M518.6,379.645c.96-3.427-3.473-.5-4.57.32-3.519,2.7-6.992,6.58-7.586,10.876-.319,1.919.092,4.112,2.422,4.432,2.6.32,6.26-2.011,8.043-3.336a27.252,27.252,0,0,0,4.752-4.707.732.732,0,0,1,1.142.914c-2.742,3.61-9.276,9.048-14.531,8.683-4.112-.229-5.666-3.29-4.935-7.311.731-4.342,4.112-8.728,8-11.15a10.558,10.558,0,0,1,7.449-1.736c4.478,1.143,1.6,7.358-1.234,8.957-1.143.594-2.7.228-2.285-1.1a10.926,10.926,0,0,0,3.336-4.844" transform="translate(-1187.163 984.516)" fill="#434343"/>
      <path id="Path_281" data-name="Path 281" d="M532.906,366.649a.739.739,0,0,1,.594-1.234c1.645.137,3.336.183,5.026.229,2.7-.457,5.849-1.554,7.677-3.519.229-.366.457-.777.732-1.143a1.461,1.461,0,0,1,2.467,1.554c-.548,1.051-1.142,2.056-1.736,3.062,1.462,0,3.062-.092,5.3-.092a.731.731,0,0,1,0,1.462c-.96,0-2.239,0-3.793.046-.777,0-1.554.046-2.422.046-3.336,5.437-7.129,10.556-10.191,16.038-2.056,3.519-.914,4.936.457,4.662,2.924-.5,8.271-5.941,8.91-7.449,3.839-1.279-1.919,4.662-2.742,5.3a18.212,18.212,0,0,1-4.478,3.108c-3.976,1.691-7.769-.32-5.9-5.164,1.737-4.524,6.718-10.419,7.86-12.932l2.239-3.518c-1.462.045-2.925.045-4.433,0-1.508.137-4.341.959-5.575-.457" transform="translate(-1200.238 991.754)" fill="#434343"/>
      <path id="Path_282" data-name="Path 282" d="M567.12,375.343c.457,28.743-21.751,18.69-12.841,7.86,1.462-1.645,4.021.685,2.559,2.331-8.454,4.752,6.4,14.394,6.809-2.285a44.931,44.931,0,0,1,1.874-10.419c1.188-4.159,5.986-2.148,1.6,2.513" transform="translate(-1209.137 987.173)" fill="#434343"/>
    </g>
  </g>
</svg>
