<svg xmlns="http://www.w3.org/2000/svg" viewBox="0 0 298.187 191.908">
  <g id="Group_295" data-name="Group 295" transform="translate(1097.08 -888.045)">
    <g id="Group_286" data-name="Group 286" transform="translate(-1179 678.5)">
      <path id="Path_226" data-name="Path 226" d="M271.081,74.948c-.749,0-1.622.7-2.542,1.864a4.4,4.4,0,0,0-1.219-.121c-5.728,0-11.142,7.279-17.614,16.815-8.711,1.219-13.067,4.239-12.995,5.07a2.671,2.671,0,0,0,1.758,1.549c.182,0,.3-.1.634-.384.974-.826,3.493-2.961,9.25-4.193-5.458,8.106-11.084,16.255-16.381,16.255a3.952,3.952,0,0,1-2.545-.9,1.59,1.59,0,0,0-.879-.417,2.555,2.555,0,0,0-1.251.7.58.58,0,0,0-.186.447c.074.857,2.1,1.763,3.946,1.763,8.539,0,15.476-9.515,21.31-18.483a48.787,48.787,0,0,1,5.189-.265c1.171,0,2.26.082,3.2.173a24.234,24.234,0,0,0-.809,7.063c.334,3.82,2.936,5.819,5.333,5.819a2.2,2.2,0,0,0,1.48-.432.464.464,0,0,0,.132-.357.627.627,0,0,0-.6-.554.828.828,0,0,0-.251.05.983.983,0,0,1-.31.057c-1.52,0-2.414-1.405-2.657-4.178a26.372,26.372,0,0,1,.739-6.935,18.915,18.915,0,0,1,3.085.994,1.329,1.329,0,0,0,.464.149.689.689,0,0,0,.507-.237.789.789,0,0,0,.211-.588c-.05-.568-2.966-1.429-3.942-1.7,1.848-7.8,5.387-16.878,6.954-17.8a2.342,2.342,0,0,1,.216-.11.558.558,0,0,0,.415-.563.588.588,0,0,0-.638-.554M261.17,93.293a20.323,20.323,0,0,0-3.382-.309c-1.41,0-2.778.043-4.255.135q.615-.959,1.216-1.9c4.468-7.007,8.326-13.059,11.56-13.059.134,0,.538.006.908.011l.356.005a62.193,62.193,0,0,0-6.4,15.119" transform="translate(-96.751 134.597)" fill="currentColor"/>
    </g>
    <g id="Group_281" data-name="Group 281" transform="translate(-1179 678.5)">
      <path id="Path_227" data-name="Path 227" d="M574.1,190.363a1.286,1.286,0,0,0-.4-1.832,1.3,1.3,0,0,0-1.875.316c-1.6,2.414-3.533,5.429-5.4,8.346-.893,1.394-1.784,2.784-2.638,4.107a1.918,1.918,0,0,0-2.362-.427c-.791.593-.647,2.063.333,3.517l-.141.226c-.336.549-.719,1.146-1.127,1.769a.833.833,0,0,0-.3-.017,5.648,5.648,0,0,1-4.011-.414c1.477-2.731,1.774-5.084.883-6.993-.77-1.753-2.083-2.052-3.063-1.746-5.21.232-8.993,5.834-10.379,8.235-1.219,2.14-1.788,5.5-.63,7.422a3.316,3.316,0,0,0,3.069,1.559l.187,0c2.51-.185,6.777-3.543,9.187-7.217a7.926,7.926,0,0,0,4.015.752c-1.061,1.6-2.155,3.261-2.941,4.635-1.963,3.676-1.477,5.865-.368,6.687a2.339,2.339,0,0,0,1.424.439c1.438,0,3.3-1,5.139-2.842a12.308,12.308,0,0,0,3.57-9.479c2.45.633,4.055.722,4.775.265a.9.9,0,0,0,.425-.613l0-.021,0-.021a.766.766,0,0,0-.832-.65,11.439,11.439,0,0,1-4.37-.374l-.039-.006a.506.506,0,0,1-.181-.041,12.534,12.534,0,0,0-.646-2.186l1.458-2.269c2.409-3.751,5.14-8,7.234-11.127m-13.691,26.8c-1.035.717-1.771.919-2.127.588-.6-.559-.146-2.51.665-3.886.7-1.316,1.817-2.988,2.9-4.606.685-1.029,1.335-2,1.863-2.862.166.108.34.2.509.3l.149.082c.265,3.2-1.757,8.518-3.954,10.386m-6.671-11.2c-1.677,3.11-4.025,5.638-6,6.456-1.031.4-1.789.351-2.253-.134-.777-.812-.564-2.661.048-4.067,1.748-4.1,4.25-7.594,6.484-9.092-.736,1.715-.343,3.936,1.1,6.049a3.912,3.912,0,0,0,.625.788m.664-1.374a5.2,5.2,0,0,1-1.259-3.3c.048-1.723.583-2.53,1.068-2.711a.673.673,0,0,1,.235-.043.837.837,0,0,1,.611.311c.807.871.548,3.113-.655,5.745" transform="translate(-236.754 84.271)" fill="currentColor"/>
      <path id="Path_228" data-name="Path 228" d="M151.689,216.052c-9.345,0-11.713-5.955-11.713-11.615,0-8.127,4.409-12.273,11.944-12.273,4.278,0,5.989.954,5.989.954s-.066.724-.066,2.5c0,1.579.066,2.632.066,2.632-1.415-2.04-2.6-3.225-5.66-3.225-3.981,0-7.173,2.863-7.173,9.246,0,5.3,1.876,8.884,7.041,8.884,3.093,0,4.376-1.251,5.791-3.29,0,0-.066,1.053-.066,2.862,0,1.612.066,2.369.066,2.369a16.788,16.788,0,0,1-6.219.954" transform="translate(-58.056 82.542)" fill="currentColor"/>
      <path id="Path_229" data-name="Path 229" d="M192.321,216.2c-7.074,0-10.792-4.442-10.792-11.681,0-4.969,1.974-12.47,10.792-12.47,7.074,0,10.792,4.409,10.792,11.681,0,4.969-1.974,12.47-10.792,12.47m0-21.223c-3.389,0-5.626,2.6-5.626,9.213,0,6.581,2.171,9.081,5.626,9.081,3.389,0,5.626-2.6,5.626-9.246,0-6.581-2.171-9.048-5.626-9.048" transform="translate(-76.51 82.594)" fill="currentColor"/>
      <path id="Path_230" data-name="Path 230" d="M244.971,214.827l-.066,1.152H233.784c-1.777,0-2.534.033-2.534.033l.3-.559c.658-1.251.823-1.481.823-11.352,0-9.575-.132-9.706-.823-11.022l-.3-.559s.987.066,3.587.066c2.567,0,3.521-.066,3.521-.066l-.329.559c-.724,1.25-.888,1.777-.888,10.036v10h2.369c4.08,0,4.606-.954,5.824-2.731,0,0-.165,1.283-.362,4.442" transform="translate(-98.591 82.384)" fill="currentColor"/>
      <path id="Path_231" data-name="Path 231" d="M279.776,214.827l-.066,1.152H268.589c-1.777,0-2.534.033-2.534.033l.3-.559c.658-1.251.823-1.481.823-11.352,0-9.575-.132-9.706-.823-11.022l-.3-.559s.987.066,3.587.066c2.567,0,3.52-.066,3.52-.066l-.329.559c-.724,1.25-.888,1.777-.888,10.036v10h2.369c4.08,0,4.606-.954,5.824-2.731,0,0-.165,1.283-.362,4.442" transform="translate(-114.048 82.384)" fill="currentColor"/>
      <path id="Path_232" data-name="Path 232" d="M315.7,214.827l-.066,1.152h-12.24c-1.777,0-2.533.033-2.533.033l.3-.559c.658-1.251.822-1.481.822-11.352,0-9.575-.132-9.706-.822-11.022l-.3-.559s.724.033,2.5.033H315.3s-.033.625-.033,2.073c0,1.579.066,2.3.066,2.369a4.062,4.062,0,0,0-1.152-.888,7.547,7.547,0,0,0-3.619-.724h-3.85v7.436h3.06a7.685,7.685,0,0,0,3.619-.625,4.887,4.887,0,0,0,1.185-.856c0,.033-.1.954-.1,2.928,0,1.876.1,2.83.1,2.9a4.824,4.824,0,0,0-1.185-.888,7.685,7.685,0,0,0-3.619-.625h-3.06v7.469h3.521c4.08,0,4.606-.954,5.824-2.731,0,0-.165,1.283-.362,4.442" transform="translate(-129.505 82.384)" fill="currentColor"/>
      <path id="Path_233" data-name="Path 233" d="M349.8,216.052c-9.345,0-11.713-5.955-11.713-11.615,0-8.127,4.409-12.273,11.944-12.273,4.278,0,5.989.954,5.989.954s-.066.724-.066,2.5c0,1.579.066,2.632.066,2.632-1.415-2.04-2.6-3.225-5.66-3.225-3.981,0-7.173,2.863-7.173,9.246,0,5.3,1.876,8.884,7.041,8.884,3.093,0,4.376-1.251,5.791-3.29,0,0-.066,1.053-.066,2.862,0,1.612.066,2.369.066,2.369a16.788,16.788,0,0,1-6.219.954" transform="translate(-146.039 82.542)" fill="currentColor"/>
      <path id="Path_234" data-name="Path 234" d="M395.584,197.053a4.075,4.075,0,0,0-1.152-.888,7.294,7.294,0,0,0-3.586-.823H388.9v9.114c0,9.575.131,9.707.822,11.023l.3.559s-1.02-.066-3.488-.066-3.521.066-3.521.066l.3-.559c.658-1.251.822-1.481.822-11.352v-8.785h-1.908a7.3,7.3,0,0,0-3.586.823,4.576,4.576,0,0,0-1.185.888,23.391,23.391,0,0,0,.1-2.4c0-1.448-.033-2.073-.033-2.073h18.031s-.033.625-.033,2.073c0,1.579.066,2.336.066,2.4" transform="translate(-163.52 82.358)" fill="currentColor"/>
      <path id="Path_235" data-name="Path 235" d="M422.292,215.946c-2.468,0-3.521.066-3.521.066l.3-.559c.658-1.25.823-1.481.823-11.351,0-9.575-.132-9.707-.823-11.022l-.3-.56s.987.066,3.488.066c2.566,0,3.52-.066,3.52-.066l-.3.56c-.658,1.25-.823,1.48-.823,11.351,0,9.575.132,9.707.823,11.022l.3.559s-1.053-.066-3.488-.066" transform="translate(-181.869 82.384)" fill="currentColor"/>
      <path id="Path_236" data-name="Path 236" d="M458.073,200.317l-4.837,15.695s-1.25-.066-3.224-.066c-1.941,0-3.357.066-3.357.066l-4.738-15.695c-1.382-4.573-2.007-6.614-3.257-7.8,0,0,1.217.066,3.882.066,2.862,0,4.113-.066,4.113-.066a2.326,2.326,0,0,0-1.053,2.073,28.7,28.7,0,0,0,1.251,5.5l3.323,11.713c.23.856.362,1.678.395,1.809a11.658,11.658,0,0,1,.427-1.777l3.29-11.746a26.806,26.806,0,0,0,1.251-5.5,2.326,2.326,0,0,0-1.053-2.073s1.184.066,3.553.066c2.336,0,3.323-.066,3.323-.066-1.217,1.185-1.876,3.225-3.29,7.8" transform="translate(-190.702 82.384)" fill="currentColor"/>
      <path id="Path_237" data-name="Path 237" d="M501.562,214.827l-.066,1.152h-12.24c-1.777,0-2.534.033-2.534.033l.3-.559c.658-1.251.822-1.481.822-11.352,0-9.575-.131-9.706-.822-11.022l-.3-.559s.724.033,2.5.033h11.944s-.033.625-.033,2.073c0,1.579.066,2.3.066,2.369a4.06,4.06,0,0,0-1.152-.888,7.545,7.545,0,0,0-3.619-.724h-3.85v7.436h3.06a7.685,7.685,0,0,0,3.619-.625,4.884,4.884,0,0,0,1.185-.856c0,.033-.1.954-.1,2.928,0,1.876.1,2.83.1,2.9a4.822,4.822,0,0,0-1.185-.888,7.685,7.685,0,0,0-3.619-.625h-3.06v7.469H496.1c4.08,0,4.606-.954,5.824-2.731,0,0-.165,1.283-.362,4.442" transform="translate(-212.046 82.384)" fill="currentColor"/>
    </g>
    <g id="Group_282" data-name="Group 282" transform="translate(-1179 678.5)">
      <path id="Path_238" data-name="Path 238" d="M298.124,374.133c5.986-5.94,9.993-14.322,14-21.782a1.636,1.636,0,0,1-.092-.461c-2.395-17.729,11.19-15.1,13.861-12.894a.785.785,0,0,1,.276.276c.23.276.23.553,0,.737a.638.638,0,0,1-.921.276h-.092c-3.178-1.059-6.217,2.579-9.44,8.151,1.059,6.079,3.361,12.112,1.8,18.375-2.256,8.934-11.881,12.8-19.341,10.269-4.605,4.789-9.947,7.506-16.44,5.849-1.658-1.382,3.362-1.2,4.006-1.612a25.345,25.345,0,0,0,10.224-5.2,12.8,12.8,0,0,1-5.572-6.4,12.108,12.108,0,0,1-.138-10.545c.415-.921,1.8-.138,1.29.691-2.9,6.078,1.105,11.6,6.585,14.276m1.934.829c5.849,1.98,12.526.737,14.23-6.355.921-4.835-.6-9.624-1.75-14.368-3.592,6.861-7.6,14.829-12.48,20.723m22.473-36.2c-3.454-.921-7.46,1.244-7.276,5.388a18.615,18.615,0,0,0,.184,2.3c1.8-3.177,3.96-6.861,7.092-7.69" transform="translate(-120.861 18.036)" fill="currentColor"/>
      <path id="Path_239" data-name="Path 239" d="M364.363,373.371c1.29-.415,2.717.138,3.546,2.026,1.29,2.763.322,5.849-1.151,8.52a7.063,7.063,0,0,0,5.158.6.726.726,0,0,1,.829.6.716.716,0,0,1-.6.874,9.7,9.7,0,0,1-6.124-.828c-2.763,4.283-8.013,8.611-11.145,8.842-5.848.184-5.112-7.046-3.039-10.684,2.579-4.467,7.045-9.717,12.526-9.947m-2.026,1.7c-2.763,1.565-6.078,5.848-8.473,11.467-1.243,2.855-1.059,6.861,2.9,5.342,2.671-1.105,5.572-4.513,7.46-8.059a4.432,4.432,0,0,1-.829-1.013c-2.164-3.177-2.072-5.986-1.06-7.736m2.533,7.414c1.474-3.131,2.026-6.171.875-7.414-.967-1.06-2.533-.23-2.625,3.085a6.457,6.457,0,0,0,1.75,4.329" transform="translate(-151.471 2.125)" fill="currentColor"/>
      <path id="Path_240" data-name="Path 240" d="M386.718,388.884c-.967,2.165-.737,3.961,2.119,2.211,2.256-1.382,4.559-4.7,5.8-6.033,2.348-2.947,4.467-6.125,6.631-9.256.046,0,.046,0,.092-.046l1.52-2.21a1.473,1.473,0,0,1,2.487,1.565c-2.579,5.2-6.539,9.624-9.21,14.69-1.243,2.487,1.381,2.256,2.855,1.7,3.27-1.244,5.71-4.559,7.875-7.23,4.144-1.428-2.671,6.355-7.322,8.658-3.592,1.75-6.815-.6-5.94-4.375-1.888,2.21-4.053,4.329-7.046,4.836-2.44.46-3.868-2.257-3.131-4.283,1.842-6.125,6.539-10.592,9.717-15.934a1.464,1.464,0,1,1,2.763.967c-2.026,5.158-7,9.533-9.21,14.736" transform="translate(-166.096 2.591)" fill="currentColor"/>
      <path id="Path_241" data-name="Path 241" d="M424.656,380.429c-2.3,4.19,1.75,3.684,4.237,1.888a26.47,26.47,0,0,0,6.354-6.263c4.559-1.289-4.421,7.184-5.572,7.506-4.006,3.27-10.592,1.2-7.645-4.605,1.382-2.441,4.145-6.77,5.618-9.256,3.177-5.02,6.723-10.545,9.947-15.473a1.459,1.459,0,0,1,2.487,1.52c-4.743,8.243-10.315,16.67-15.427,24.683" transform="translate(-182.99 10.862)" fill="currentColor"/>
      <path id="Path_242" data-name="Path 242" d="M456.641,372.861c.46,28.966-21.92,18.835-12.94,7.921,1.474-1.658,4.053.69,2.579,2.349-8.52,4.789,6.447,14.506,6.862-2.3a45.275,45.275,0,0,1,1.888-10.5c1.2-4.191,6.033-2.165,1.612,2.533" transform="translate(-191.995 4.431)" fill="currentColor"/>
    </g>
    <g id="Group_280" data-name="Group 280" transform="translate(-1179 678.5)">
      <path id="Path_243" data-name="Path 243" d="M299.793,287.114a17.511,17.511,0,0,1-2.336-.165c0,6.58.165,7.206.888,8.489l.329.592s-1.02-.066-3.553-.066c-2.468,0-3.488.066-3.488.066l.3-.559c.658-1.217.823-1.481.823-11.352,0-9.574-.132-9.706-.823-11.022l-.3-.559s1.053.066,2.764.066c1.415,0,3.685-.1,4.705-.1,3.521,0,9.739.23,9.739,7.041,0,6.515-5.133,7.568-9.048,7.568M299,275.137c-.888,0-1.546.033-1.546.033v9.246a8.459,8.459,0,0,0,1.744.1c4.409,0,4.607-3.093,4.607-4.9,0-4.014-2.764-4.475-4.8-4.475" transform="translate(-125.407 46.862)" fill="currentColor"/>
      <path id="Path_244" data-name="Path 244" d="M344.837,296.043c-2.171,0-3.882.066-3.882.066a2.324,2.324,0,0,0,1.053-2.072,24.77,24.77,0,0,0-1.053-4.936l-.461-1.645h-6.975l-.46,1.645a25.342,25.342,0,0,0-1.086,4.936,2.335,2.335,0,0,0,1.086,2.072s-1.35-.066-3.39-.066c-2.106,0-3.29.066-3.29.066,1.251-1.184,1.843-3.224,3.192-7.8l4.047-13.721a3.8,3.8,0,0,0,.23-1.217.927.927,0,0,0-.23-.691h8.292a1.224,1.224,0,0,0-.2.691,4.946,4.946,0,0,0,.2,1.217l3.751,13.721c1.251,4.606,1.843,6.614,3.06,7.8,0,0-1.514-.066-3.883-.066m-7.206-19.512c-.362-1.382-.559-2.171-.592-2.4-.033.165-.231.888-.625,2.4l-2.138,8.061h5.494Z" transform="translate(-140.837 46.784)" fill="currentColor"/>
      <path id="Path_245" data-name="Path 245" d="M380.023,296.1a14.675,14.675,0,0,1-6.054-.987s.066-.789.066-2.369c0-1.744-.066-2.928-.066-2.928,1.25,1.81,2.731,3.323,5.824,3.323,2.106,0,4.31-.427,4.31-2.928,0-1.809-1.086-2.533-2.6-3.422l-2.8-1.678c-2.435-1.415-4.705-3.093-4.705-6.614,0-3.882,2.567-6.284,8.028-6.284a14.063,14.063,0,0,1,5.66.954s-.066.79-.066,2.435c0,1.711.066,2.764.066,2.764-1.349-1.974-2.862-3.224-5.462-3.224-1.81,0-3.784.395-3.784,2.665,0,1.711,1.185,2.369,2.994,3.422l2.336,1.382c2.763,1.612,4.8,3.125,4.8,6.844,0,5.1-3.685,6.646-8.555,6.646" transform="translate(-161.972 46.994)" fill="currentColor"/>
      <path id="Path_246" data-name="Path 246" d="M416.249,296.1a14.672,14.672,0,0,1-6.054-.987s.066-.789.066-2.369c0-1.744-.066-2.928-.066-2.928,1.25,1.81,2.731,3.323,5.824,3.323,2.106,0,4.31-.427,4.31-2.928,0-1.809-1.086-2.533-2.6-3.422l-2.8-1.678c-2.435-1.415-4.705-3.093-4.705-6.614,0-3.882,2.567-6.284,8.028-6.284a14.063,14.063,0,0,1,5.66.954s-.066.79-.066,2.435c0,1.711.066,2.764.066,2.764-1.349-1.974-2.862-3.224-5.462-3.224-1.81,0-3.784.395-3.784,2.665,0,1.711,1.185,2.369,2.994,3.422L420,282.607c2.763,1.612,4.8,3.125,4.8,6.844,0,5.1-3.685,6.646-8.555,6.646" transform="translate(-178.06 46.994)" fill="currentColor"/>
      <path id="Path_247" data-name="Path 247" d="M450.711,295.99c-2.468,0-3.521.066-3.521.066l.3-.559c.658-1.25.823-1.481.823-11.352,0-9.575-.132-9.707-.823-11.022l-.3-.56s.987.066,3.488.066c2.567,0,3.521-.066,3.521-.066l-.3.56c-.658,1.25-.822,1.48-.822,11.352,0,9.575.131,9.707.822,11.022l.3.559s-1.053-.066-3.488-.066" transform="translate(-194.49 46.836)" fill="currentColor"/>
      <path id="Path_248" data-name="Path 248" d="M481.422,296.241c-7.074,0-10.792-4.442-10.792-11.681,0-4.969,1.974-12.471,10.792-12.471,7.074,0,10.792,4.409,10.792,11.681,0,4.969-1.974,12.47-10.792,12.47m0-21.223c-3.389,0-5.626,2.6-5.626,9.213,0,6.581,2.171,9.081,5.626,9.081,3.389,0,5.626-2.6,5.626-9.246,0-6.581-2.171-9.048-5.626-9.048" transform="translate(-204.899 47.046)" fill="currentColor"/>
      <path id="Path_249" data-name="Path 249" d="M540.856,273.123c-.592,1.152-.823,1.48-.823,11.351V296.09a24.249,24.249,0,0,0-2.566-.1c-1.908,0-3.225.1-3.225.1l-8.456-16.879a14.065,14.065,0,0,1-.889-2.369v7.634c0,9.575.132,9.707.823,11.022l.3.559s-.888-.066-2.863-.066c-2.04,0-2.862.066-2.862.066l.3-.559c.592-1.185.823-1.48.823-11.351,0-9.575-.132-9.707-.823-11.022l-.3-.559s1.053.066,3.652.066c2.2,0,3.29-.066,3.29-.066l8.325,16.748a12.444,12.444,0,0,1,.987,2.533v-7.7c0-9.575-.131-9.707-.822-11.022l-.3-.559s.888.066,2.862.066c2.04,0,2.863-.066,2.863-.066Z" transform="translate(-226.954 46.836)" fill="currentColor"/>
      <path id="Path_250" data-name="Path 250" d="M583.56,296.043c-2.171,0-3.882.066-3.882.066a2.324,2.324,0,0,0,1.053-2.072,24.775,24.775,0,0,0-1.053-4.936l-.461-1.645h-6.975l-.46,1.645a25.376,25.376,0,0,0-1.086,4.936,2.336,2.336,0,0,0,1.086,2.072s-1.349-.066-3.389-.066c-2.106,0-3.29.066-3.29.066,1.251-1.184,1.843-3.224,3.192-7.8l4.047-13.721a3.8,3.8,0,0,0,.23-1.217.929.929,0,0,0-.23-.691h8.292a1.224,1.224,0,0,0-.2.691,4.946,4.946,0,0,0,.2,1.217l3.751,13.721c1.25,4.606,1.843,6.614,3.06,7.8,0,0-1.514-.066-3.883-.066m-7.206-19.512c-.362-1.382-.559-2.171-.592-2.4-.033.165-.231.888-.625,2.4L573,284.593h5.495Z" transform="translate(-246.854 46.784)" fill="currentColor"/>
      <path id="Path_251" data-name="Path 251" d="M625.85,277.1a4.076,4.076,0,0,0-1.152-.888,7.294,7.294,0,0,0-3.586-.823H619.17V284.5c0,9.575.131,9.707.822,11.023l.3.559s-1.02-.066-3.488-.066-3.521.066-3.521.066l.3-.559c.658-1.251.822-1.481.822-11.352v-8.785h-1.908a7.3,7.3,0,0,0-3.586.823,4.579,4.579,0,0,0-1.185.888,23.382,23.382,0,0,0,.1-2.4c0-1.448-.033-2.073-.033-2.073h18.031s-.033.625-.033,2.073c0,1.579.066,2.336.066,2.4" transform="translate(-265.781 46.81)" fill="currentColor"/>
      <path id="Path_252" data-name="Path 252" d="M663.875,294.872l-.066,1.152h-12.24c-1.777,0-2.533.033-2.533.033l.3-.559c.658-1.251.823-1.481.823-11.352,0-9.575-.132-9.706-.823-11.022l-.3-.559s.724.033,2.5.033h11.944s-.033.625-.033,2.073c0,1.579.066,2.3.066,2.369a4.061,4.061,0,0,0-1.152-.888,7.548,7.548,0,0,0-3.619-.724h-3.85v7.436h3.06a7.685,7.685,0,0,0,3.619-.625,4.886,4.886,0,0,0,1.185-.856c0,.033-.1.954-.1,2.928,0,1.876.1,2.83.1,2.9a4.821,4.821,0,0,0-1.185-.888,7.685,7.685,0,0,0-3.619-.625h-3.06v7.469h3.521c4.08,0,4.606-.954,5.824-2.731,0,0-.165,1.283-.362,4.442" transform="translate(-284.13 46.836)" fill="currentColor"/>
    </g>
  </g>
</svg>
