<svg xmlns="http://www.w3.org/2000/svg" width="84.613" height="38.197" viewBox="0 0 84.613 38.197">
  <g id="Group_277" data-name="Group 277" transform="translate(1207.839 -685.254)">
    <path id="Path_296" data-name="Path 296" d="M38.794,379.708c-.635-1.7-2.284-6.427-3.211-9.091a2.081,2.081,0,0,0-4.039,0c-.93,2.672-2.583,7.407-3.211,9.091a12.28,12.28,0,0,0-.777,3.555h2.467c.248,0,.266-.236.257-.371,0-.024-.005-.048-.007-.072l0-.02h0c-.011-.119-.02-.239-.02-.361,0-2.125,1.282-3.849,3.312-3.849s3.307,1.724,3.307,3.849c0,.122-.009.242-.02.361h0l0,.021c0,.024,0,.047-.007.07-.009.135.008.372.257.372h2.471a12.319,12.319,0,0,0-.777-3.555" transform="translate(-1222.716 317.548)" fill="#ffcf00"/>
    <path id="Path_297" data-name="Path 297" d="M39.945,379.279c-.631-1.692-2.277-6.406-3.2-9.065a3.3,3.3,0,0,0-6.359,0c-.928,2.667-2.578,7.392-3.2,9.065a13.905,13.905,0,0,0-.835,3.64.315.315,0,0,0,.31.339l.9.018v-.013a12.319,12.319,0,0,1,.777-3.555c.628-1.684,2.281-6.418,3.211-9.091a2.081,2.081,0,0,1,4.039,0c.927,2.664,2.576,7.388,3.211,9.091a12.28,12.28,0,0,1,.777,3.555v.013l.9-.018a.315.315,0,0,0,.31-.339,13.905,13.905,0,0,0-.835-3.64" transform="translate(-1222.716 317.548)" fill="#f8f8f8"/>
    <path id="Path_298" data-name="Path 298" d="M23.887,380.621c.319,0,.492.192.49.534v1.59a.548.548,0,0,1-.573.531h-8.4a.5.5,0,0,1-.531-.531V368.237a.5.5,0,0,1,.531-.531H17.83a.5.5,0,0,1,.531.531V380.09a.5.5,0,0,0,.531.531Z" transform="translate(-1222.716 317.548)" fill="#f8f8f8"/>
    <path id="Path_299" data-name="Path 299" d="M39.945,379.279c-.631-1.692-2.277-6.406-3.2-9.065a3.3,3.3,0,0,0-6.359,0c-.928,2.667-2.578,7.392-3.2,9.065a13.905,13.905,0,0,0-.835,3.64.315.315,0,0,0,.31.339l.9.018v-.013a12.319,12.319,0,0,1,.777-3.555c.628-1.684,2.281-6.418,3.211-9.091a2.081,2.081,0,0,1,4.039,0c.927,2.664,2.576,7.388,3.211,9.091a12.28,12.28,0,0,1,.777,3.555v.013l.9-.018a.315.315,0,0,0,.31-.339,13.905,13.905,0,0,0-.835-3.64" transform="translate(-1222.716 317.548)" fill="#06a30a"/>
    <path id="Path_300" data-name="Path 300" d="M23.887,380.621c.319,0,.492.192.49.534v1.59a.548.548,0,0,1-.573.531h-8.4a.5.5,0,0,1-.531-.531V368.237a.5.5,0,0,1,.531-.531H17.83a.5.5,0,0,1,.531.531V380.09a.5.5,0,0,0,.531.531Z" transform="translate(-1222.716 317.548)" fill="#ffcf00"/>
    <path id="Path_301" data-name="Path 301" d="M27.873,383.275l-.634-.024a12.735,12.735,0,0,1,.8-3.654c.659-1.768,2.463-6.942,3.208-9.084a2.4,2.4,0,0,1,4.639,0c.928,2.668,2.578,7.4,3.208,9.085a12.515,12.515,0,0,1,.8,3.655l-.634.021a11.989,11.989,0,0,0-.757-3.454c-.632-1.7-2.284-6.428-3.213-9.1a1.766,1.766,0,0,0-3.441,0c-.746,2.144-2.552,7.324-3.213,9.1a11.986,11.986,0,0,0-.757,3.456" transform="translate(-1222.716 317.548)" fill="#06a30a"/>
    <path id="Path_302" data-name="Path 302" d="M29.549,393.162a.463.463,0,0,0,.491.491h4.273c.294,0,.451.168.451.491v1.473a.491.491,0,0,1-.526.491h-4.2a.464.464,0,0,0-.491.491v3.661a.464.464,0,0,1-.491.491H26.819a.464.464,0,0,1-.491-.491V386.845a.463.463,0,0,1,.491-.491h8.566a.506.506,0,0,1,.53.491v1.473a.425.425,0,0,1-.452.491H30.04a.463.463,0,0,0-.491.491Z" transform="translate(-1222.716 317.548)" fill="#06a30a"/>
    <path id="Path_303" data-name="Path 303" d="M71.493,387.993a5.672,5.672,0,0,0-4.093-1.434,4.04,4.04,0,0,0-3.982,4.221c.088,2.406,1.952,3.409,3.5,4.2,1.084.561,2.556.935,2.56,1.854a1.567,1.567,0,0,1-1.9,1.512,4.268,4.268,0,0,1-2.391-1.3.881.881,0,0,0-1.235.026l-.592.512a1.063,1.063,0,0,0,.1,1.647,5.821,5.821,0,0,0,4.647,1.721c2.123-.133,4.377-1.9,4.292-4.245-.087-2.407-1.952-3.409-3.5-4.2h0c-1.085-.561-2.453-.928-2.6-1.835a1.261,1.261,0,0,1,1.149-1.532,2.931,2.931,0,0,1,2.349,1.086.88.88,0,0,0,1.235-.026l.68-.69c.5-.53.207-1.121-.226-1.518" transform="translate(-1222.716 317.548)" fill="#06a30a"/>
    <path id="Path_304" data-name="Path 304" d="M55.368,397.8a.463.463,0,0,0,.491.491h4.627a.425.425,0,0,1,.452.491v1.473a.506.506,0,0,1-.53.491H52.638a.463.463,0,0,1-.491-.491V386.844a.464.464,0,0,1,.491-.491h7.771a.507.507,0,0,1,.53.491v1.473a.425.425,0,0,1-.452.491H55.859a.464.464,0,0,0-.491.491v2.755a.463.463,0,0,0,.491.491H59.7a.425.425,0,0,1,.451.491l0,1.469a.509.509,0,0,1-.531.491l-3.766,0a.464.464,0,0,0-.491.491Z" transform="translate(-1222.716 317.548)" fill="#06a30a"/>
    <path id="Path_305" data-name="Path 305" d="M84.893,398.306l-.477-.609a.738.738,0,0,0-1.03-.216,3.834,3.834,0,0,1-1.809.691c-2.428.192-4.168-1.431-4.187-4.62.019-3.189,1.759-4.812,4.187-4.62a3.824,3.824,0,0,1,1.809.691.738.738,0,0,0,1.03-.216l.477-.609a.953.953,0,0,0,.2-.4.766.766,0,0,0-.22-.684,1.37,1.37,0,0,0-.332-.264,6.574,6.574,0,0,0-3.479-1.092c-4.628,0-6.78,3.513-6.824,7.15h0v.1h0c.044,3.637,2,7.15,6.824,7.15a6.574,6.574,0,0,0,3.479-1.092,1.37,1.37,0,0,0,.332-.264.767.767,0,0,0,.22-.684.952.952,0,0,0-.2-.4" transform="translate(-1222.716 317.548)" fill="#06a30a"/>
    <path id="Path_306" data-name="Path 306" d="M79.247,385.919c-.089-.707-.445-2.813-.606-3.642a.45.45,0,0,0-.671-.343l-.307.117a.378.378,0,0,0-.225.45l1.062,3.553a.129.129,0,0,0,.126.093l.5-.084a.128.128,0,0,0,.125-.144" transform="translate(-1222.716 317.548)" fill="#06a30a"/>
    <path id="Path_307" data-name="Path 307" d="M79.546,384.088a4.565,4.565,0,0,1,2.079-3.853,4.411,4.411,0,0,1,2.451-.6c1.233.065,2.138-.163,1.57,1.106-.8,1.8-2.032,4.64-5.767,3.682l-.91.822-.15-.479Z" transform="translate(-1222.716 317.548)" fill="#06a30a"/>
    <path id="Path_308" data-name="Path 308" d="M99.49,393.552c0,3.935-2.687,7.1-6.6,7.2-3.781,0-6.6-3.149-6.6-7.2,0-3.839,2.686-7.2,6.6-7.2,3.839,0,6.6,3.282,6.6,7.2m-3.283,0c0-2.169-.9-4.665-3.32-4.665-2.3,0-3.32,2.285-3.32,4.665,0,2.265.9,4.511,3.32,4.665,2.227,0,3.32-2.227,3.32-4.665" transform="translate(-1222.716 317.548)" fill="#06a30a"/>
    <path id="Path_309" data-name="Path 309" d="M64.717,404.468l-.213-1.751a.462.462,0,0,0-.559-.316,33.906,33.906,0,0,1-7.4.892c-4.921-.147-6.169-2.19-7.759-4.751a13.251,13.251,0,0,1-.721-1.344c-.121-.248-.245-.5-.39-.774a4.852,4.852,0,0,0-1.169-1.623l.079-.03a4.085,4.085,0,0,0,1.591-3.586,4.623,4.623,0,0,0-4.812-4.832H38.722a.464.464,0,0,0-.49.491v13.415a.463.463,0,0,0,.49.491h2.24a.464.464,0,0,0,.491-.491v-3.7a.464.464,0,0,1,.491-.491H43.2a2.324,2.324,0,0,1,2,1.171,1.838,1.838,0,0,1,.1.2s.318.632.44.884a16.257,16.257,0,0,0,.851,1.58c2.178,3.524,4.435,5.593,9.677,5.956a26.244,26.244,0,0,0,8.2-.947.357.357,0,0,0,.25-.445m-21.372-10.8H41.952a.472.472,0,0,1-.5-.5v-3.857a.471.471,0,0,1,.5-.5h1.393c1.359,0,2,1.146,2,2.479,0,1.535-.739,2.377-2,2.377" transform="translate(-1222.716 317.548)" fill="#06a30a"/>
  </g>
</svg>
