<svg xmlns="http://www.w3.org/2000/svg" width="29" height="29" viewBox="0 0 29 29">
  <path id="icons8-instagram" d="M11.456,3A8.468,8.468,0,0,0,3,11.461V23.544A8.468,8.468,0,0,0,11.461,32H23.544A8.468,8.468,0,0,0,32,23.539V11.456A8.468,8.468,0,0,0,23.539,3Zm14.5,4.833A1.208,1.208,0,1,1,24.75,9.042,1.209,1.209,0,0,1,25.958,7.833ZM17.5,10.25a7.25,7.25,0,1,1-7.25,7.25A7.257,7.257,0,0,1,17.5,10.25Zm0,2.417A4.833,4.833,0,1,0,22.333,17.5,4.833,4.833,0,0,0,17.5,12.667Z" transform="translate(-3 -3)" fill="#fff"/>
</svg>
