<svg id="Group_252" data-name="Group 252" xmlns="http://www.w3.org/2000/svg" xmlns:xlink="http://www.w3.org/1999/xlink" width="29" height="29" viewBox="0 0 29 29">
  <defs>
    <clipPath id="clip-path">
      <rect id="Rectangle_44" data-name="Rectangle 44" width="29" height="29" fill="#fff"/>
    </clipPath>
  </defs>
  <g id="Group_62" data-name="Group 62" clip-path="url(#clip-path)">
    <path id="Path_84" data-name="Path 84" d="M25.739,0H3.478A3.479,3.479,0,0,0,0,3.478V25.739a3.479,3.479,0,0,0,3.478,3.478H25.739a3.479,3.479,0,0,0,3.478-3.478V3.478A3.479,3.479,0,0,0,25.739,0M9.043,24.347H4.869V11.13H9.043ZM4.869,7.283A1.854,1.854,0,0,1,6.956,5.565,1.882,1.882,0,0,1,9.043,7.283a1.851,1.851,0,0,1-2.087,1.76,1.883,1.883,0,0,1-2.087-1.76M24.347,24.347H20.174V17.391c0-1.391-.7-2.783-2.435-2.81h-.056c-1.683,0-2.379,1.433-2.379,2.81v6.956H11.13V11.13H15.3v1.781a5.211,5.211,0,0,1,4.042-1.781c2.762,0,5,1.9,5,5.746Z" fill="#fff"/>
  </g>
</svg>
