<svg xmlns="http://www.w3.org/2000/svg" width="17.336" height="17.336" viewBox="0 0 17.336 17.336">
  <path id="icons8-whatsapp" d="M10.668,2A8.667,8.667,0,0,0,3.117,14.923l-1.1,3.935a.377.377,0,0,0,.363.479.388.388,0,0,0,.09-.011l4.106-1.017A8.668,8.668,0,1,0,10.668,2Zm4.36,11.727a2.291,2.291,0,0,1-1.5,1.045,3.094,3.094,0,0,1-1.4-.087,13.042,13.042,0,0,1-1.269-.463,9.877,9.877,0,0,1-3.8-3.318,4.246,4.246,0,0,1-.909-2.273A2.451,2.451,0,0,1,6.925,6.8a.823.823,0,0,1,.594-.275c.148,0,.3,0,.427.008s.32-.052.5.377.631,1.521.686,1.632a.4.4,0,0,1,.019.385,1.481,1.481,0,0,1-.222.367c-.112.129-.234.286-.334.385s-.227.228-.1.448a6.622,6.622,0,0,0,1.238,1.522,6.1,6.1,0,0,0,1.789,1.091c.222.11.352.092.482-.055s.556-.642.7-.862.3-.184.5-.11,1.3.6,1.521.715.371.165.427.257A1.812,1.812,0,0,1,15.029,13.727Z" transform="translate(-2 -2)" fill="#fff"/>
</svg>
