<svg xmlns="http://www.w3.org/2000/svg" xmlns:xlink="http://www.w3.org/1999/xlink" width="35.936" height="29.18" viewBox="0 0 35.936 29.18">
  <defs>
    <clipPath id="clip-path">
      <rect id="Rectangle_43" data-name="Rectangle 43" width="35.936" height="29.18" fill="#fff"/>
    </clipPath>
  </defs>
  <g id="Group_253" data-name="Group 253" transform="translate(0 0)">
    <g id="Group_60" data-name="Group 60" transform="translate(0 0)" clip-path="url(#clip-path)">
      <path id="Path_83" data-name="Path 83" d="M34.81,3.97a3.084,3.084,0,0,0-2.091-2.227A52.1,52.1,0,0,0,17.968,0,52.11,52.11,0,0,0,3.216,1.743,3.084,3.084,0,0,0,1.125,3.97,46.991,46.991,0,0,0,0,14.59,46.918,46.918,0,0,0,1.126,25.21a3.086,3.086,0,0,0,2.09,2.227A52.1,52.1,0,0,0,17.968,29.18,52.117,52.117,0,0,0,32.72,27.437a3.086,3.086,0,0,0,2.09-2.227,46.985,46.985,0,0,0,1.126-10.62A46.946,46.946,0,0,0,34.81,3.97M14.32,20.426V8.754L25.159,14.59Z" transform="translate(0 0)" fill="#fff"/>
    </g>
  </g>
</svg>
